<svg xmlns:xlink="http://www.w3.org/1999/xlink" xmlns="http://www.w3.org/2000/svg" width="25.163" height="25.163" id="screenshot-7f953290-8508-805f-8001-e77ed1fa557d" viewBox="0 0 25.163 25.163" style="-webkit-print-color-adjust: exact;color: black;" fill="none" version="1.1"><g id="shape-7f953290-8508-805f-8001-e77ed1fa557d" rx="0" ry="0" style="fill: rgb(3 3 3);"><g id="shape-7f953290-8508-805f-8001-e77ed1fa557e"><defs><linearGradient x1="12.5815" y1="5.021666e-07" x2="12.5815" y2="25.163" id="59b876f9-199b-8039-8001-ef32368139c8-XMLID_2_" gradientUnits="userSpaceOnUse" gradientTransform="matrix(1,0,0,1,0,0)"><stop offset="0" style="stop-color: rgb(244, 82, 255);"></stop><stop offset="1" style="stop-color: rgb(131, 43, 193);"></stop></linearGradient></defs><g id="fills-7f953290-8508-805f-8001-e77ed1fa557e"><path fill-rule="evenodd" clip-rule="evenodd" rx="0" ry="0" d="M24.665,21.81C24.421,22.431,23.856,23.306,23.056,23.922C22.594,24.278,22.042,24.618,21.284,24.843C20.476,25.082,19.482,25.163,18.243,25.163L6.92,25.163C5.681,25.163,4.687,25.082,3.879,24.843C3.121,24.618,2.569,24.278,2.107,23.922C1.307,23.306,0.742,22.431,0.498,21.81C0.005,20.558,0,19.138,0,18.243L0,18.243L0,6.92L0,6.92C0,6.025,0.005,4.605,0.498,3.353C0.742,2.732,1.307,1.857,2.107,1.241C2.569,0.885,3.121,0.545,3.879,0.32C4.687,0.081,5.681,0,6.92,0L6.92,0L18.243,0L18.243,0C19.482,0,20.476,0.081,21.284,0.32C22.042,0.545,22.594,0.885,23.056,1.241C23.856,1.857,24.421,2.732,24.665,3.353C25.158,4.605,25.163,6.025,25.163,6.92L25.163,18.243C25.163,19.138,25.158,20.558,24.665,21.81ZZ"></path></g></g><g id="shape-7f953290-8508-805f-8001-e77ed1fa557f"><g id="fills-7f953290-8508-805f-8001-e77ed1fa557f"><path fill-rule="evenodd" clip-rule="evenodd" fill="red" rx="0" ry="0" d="M24.665,21.81C24.421,22.431,23.856,23.306,23.056,23.922C22.594,24.278,22.042,24.618,21.284,24.843C20.476,25.082,19.482,25.163,18.243,25.163L6.92,25.163C5.681,25.163,4.687,25.082,3.879,24.843C3.121,24.618,2.569,24.278,2.107,23.922C1.307,23.306,0.742,22.431,0.498,21.81C0.005,20.558,0,19.138,0,18.243L0,18.243L0,6.92L0,6.92C0,6.025,0.005,4.605,0.498,3.353C0.742,2.732,1.307,1.857,2.107,1.241C2.569,0.885,3.121,0.545,3.879,0.32C4.687,0.081,5.681,0,6.92,0L6.92,0L18.243,0L18.243,0C19.482,0,20.476,0.081,21.284,0.32C22.042,0.545,22.594,0.885,23.056,1.241C23.856,1.857,24.421,2.732,24.665,3.353C25.158,4.605,25.163,6.025,25.163,6.92L25.163,18.243C25.163,19.138,25.158,20.558,24.665,21.81ZZ" style="fill: none;"></path></g></g><g id="shape-7f953290-8508-805f-8001-e77ed1fa8a2b" rx="0" ry="0" style="fill: rgb(0, 0, 0);"><g id="shape-7f953290-8508-805f-8001-e77ed1fa8a2c" rx="0" ry="0" style="fill: rgb(0, 0, 0);"><g id="shape-7f953290-8508-805f-8001-e77ed1fa8a2d"><g id="fills-7f953290-8508-805f-8001-e77ed1fa8a2d"><path rx="0" ry="0" d="M14.406,14.463C14.029,14.065,13.366,13.809,12.583,13.809C11.8,13.809,11.137,14.065,10.759,14.463C10.562,14.671,10.458,14.884,10.425,15.188C10.361,15.776,10.397,16.282,10.466,17.091C10.532,17.862,10.656,18.891,10.819,19.938C10.934,20.684,11.028,21.086,11.114,21.374C11.253,21.841,11.772,22.249,12.583,22.249C13.394,22.249,13.912,21.841,14.051,21.374C14.137,21.086,14.231,20.684,14.347,19.938C14.509,18.891,14.634,17.863,14.699,17.091C14.768,16.282,14.804,15.776,14.74,15.188C14.708,14.884,14.603,14.671,14.406,14.463ZZM10.525,10.916C10.525,12.053,11.447,12.975,12.585,12.975C13.722,12.975,14.644,12.053,14.644,10.916C14.644,9.779,13.722,8.856,12.585,8.856C11.447,8.856,10.525,9.779,10.525,10.916ZZM12.559,2.789C7.743,2.802,3.796,6.71,3.737,11.526C3.688,15.427,6.179,18.764,9.656,19.987C9.741,20.017,9.826,19.947,9.813,19.859C9.767,19.556,9.724,19.251,9.685,18.952C9.671,18.846,9.603,18.755,9.506,18.712C6.757,17.511,4.838,14.755,4.869,11.562C4.909,7.371,8.331,3.955,12.521,3.921C16.805,3.887,20.301,7.361,20.301,11.637C20.301,14.798,18.39,17.521,15.663,18.712C15.565,18.755,15.498,18.847,15.485,18.952C15.445,19.251,15.402,19.556,15.357,19.858C15.343,19.947,15.429,20.017,15.513,19.987C18.958,18.776,21.434,15.491,21.434,11.637C21.433,6.75,17.45,2.775,12.559,2.789ZZM12.399,6.849C15.13,6.743,17.384,8.933,17.384,11.64C17.384,13.017,16.801,14.26,15.869,15.136C15.79,15.21,15.747,15.315,15.753,15.423C15.772,15.753,15.765,16.073,15.743,16.434C15.737,16.53,15.845,16.592,15.925,16.537C17.488,15.469,18.517,13.673,18.517,11.64C18.517,8.294,15.729,5.586,12.354,5.717C9.218,5.838,6.702,8.425,6.661,11.563C6.635,13.627,7.67,15.456,9.253,16.538C9.333,16.592,9.44,16.53,9.434,16.434C9.412,16.073,9.406,15.753,9.424,15.423C9.43,15.315,9.388,15.21,9.309,15.136C8.348,14.233,7.757,12.94,7.795,11.512C7.861,8.999,9.887,6.946,12.399,6.849ZZ" style="fill: rgb(255, 255, 255);"></path></g></g></g></g></g></svg>